<svg width="327" height="640" viewBox="0 0 327 640" fill="none" xmlns="http://www.w3.org/2000/svg">
<path d="M165.635 583.368C169.01 582.912 179.596 581.953 188.204 583.079C200.028 584.627 206.163 592.936 208.759 598.428L209 598.949L209.27 599.575C211.98 606.05 211.978 612.84 210.762 618.126C209.228 624.793 205.477 630.444 200.099 634.321C193.811 638.854 186.555 639.508 183.354 639.728C179.251 640.009 174.855 639.837 171.238 639.649C158.122 638.967 150.191 631.148 146.094 625.363L145.037 623.871L144.268 622.211C141.422 616.065 139.743 605.45 147.335 596.132L147.637 595.769C149.004 594.155 150.475 592.842 151.897 591.77C154.986 587.33 159.854 584.15 165.635 583.368ZM106.76 0.0986328C120.58 -0.199736 138.08 0.23608 157.208 0.661133C185.64 1.29291 204.871 9.93283 220.535 16.8906C238.126 24.7047 252.248 35.4463 263.632 45.0547C277.2 56.5061 290.486 77.2077 302.705 96.7871C313.186 113.583 317.429 128.809 320.918 141.249C323.276 149.655 324.424 161.935 325.141 175.058C325.89 188.763 326.245 205.403 326.448 223.604C326.685 244.963 323.037 255.986 318.837 265.753C315.889 272.609 310.229 280.099 304.741 286.791C298.821 294.009 291.344 302.354 283.162 311.289C270.163 325.484 254.324 334.464 237.601 343.591C216.288 355.222 184.238 362.458 157.496 368.843C150.148 370.597 145.782 372.681 143.036 374.414C141.005 375.695 139.436 377.042 137.851 378.664C137.418 380.602 136.916 383.882 136.347 389.48C135.943 413.05 137.376 436.56 140.853 454.228C143.103 463.161 145.706 469.671 149.175 474.183C155.908 482.939 154.268 495.495 145.512 502.229C136.756 508.961 124.198 507.321 117.465 498.565C108.865 487.382 104.618 474.295 101.92 463.434L101.81 462.986L101.719 462.535C97.3583 440.729 95.8833 413.522 96.3687 387.905L96.3833 387.109L96.4624 386.315C97.1273 379.594 97.883 373.813 99.0112 369.073C100.105 364.477 102.045 358.569 106.593 353.535C114.319 344.985 125.267 335.413 148.207 329.936C177.458 322.952 202.985 316.914 218.44 308.479C235.536 299.149 245.724 292.942 253.661 284.275C261.788 275.4 268.634 267.739 273.812 261.426C276.394 258.278 278.405 255.652 279.883 253.523C280.615 252.469 281.156 251.622 281.542 250.967C281.731 250.644 281.868 250.394 281.962 250.213C282.05 250.044 282.087 249.959 282.09 249.951C283.469 246.745 284.446 244.178 285.173 240.741C285.924 237.195 286.539 232.067 286.45 224.05C286.249 205.968 285.9 190.041 285.201 177.24C284.469 163.857 283.425 155.69 282.405 152.051C278.962 139.775 275.951 129.469 268.771 117.964C255.486 96.6759 245.584 82.1645 237.833 75.623C227.577 66.9666 216.822 59.01 204.296 53.4463C189.189 46.7356 176.215 41.0935 156.32 40.6514C136.752 40.2166 120.344 39.8152 107.625 40.0898C101.28 40.2268 96.3479 40.5256 92.7085 40.9834C89.8674 41.3408 88.6868 41.697 88.5396 41.7236C75.432 48.6338 60.6869 62.1161 52.5327 81.5098C47.157 94.2954 41.6682 109.616 40.6255 133.652C39.8795 150.848 39.5367 172.663 41.1421 185.276C43.3765 202.831 49.7335 224.212 64.9409 246.417C69.6306 253.265 72.72 257.408 74.5171 259.697C75.1761 260.537 75.6275 261.08 75.8892 261.389C79.5599 265.015 81.8354 270.05 81.8354 275.617C81.8354 277.988 81.4017 282.652 78.0884 287.273C74.3669 292.464 69.0717 294.779 64.7114 295.413C58.2028 296.36 53.3383 293.731 53.0962 293.613C50.8435 292.521 49.2977 291.214 49.1851 291.122C48.3392 290.435 47.7121 289.809 47.5317 289.629C46.9912 289.09 46.4988 288.546 46.1167 288.113C45.2946 287.182 44.2792 285.958 43.0532 284.396C40.584 281.251 36.9748 276.373 31.939 269.02C12.7453 240.994 4.40421 213.439 1.4624 190.327C-0.632481 173.868 -0.070483 148.818 0.662598 131.919C1.97858 101.583 9.17021 81.4414 15.6597 66.0068C27.9378 36.8046 50.0204 16.637 70.521 6.00781C76.1121 3.10896 82.6042 1.93894 87.7163 1.2959C93.3394 0.588612 99.8356 0.248151 106.76 0.0986328ZM50.1187 259.407C48.9505 260.249 47.8262 261.253 46.7896 262.44C47.7809 261.309 48.8981 260.291 50.1187 259.407Z" fill="white"/>
</svg>
