<svg width="898" height="886" viewBox="0 0 898 886" fill="none" xmlns="http://www.w3.org/2000/svg">
<path d="M147.802 87.5591C153.619 85.6305 136.612 95.7525 148.831 90.4508C146.65 92.0791 144.497 93.7679 142.396 95.4884C141.313 95.1631 140.212 94.8587 139.117 94.5522C141.928 92.1427 144.819 89.8109 147.799 87.5554C147.8 87.5567 147.801 87.5579 147.802 87.5591ZM146.207 75.2666C144.412 79.3185 135.545 86.0437 146.921 81.4259C147.26 80.1723 147.633 78.9058 148.002 77.6509C151.968 76.0269 155.992 74.5316 160.014 73.1894C160.194 73.0376 160.374 72.886 160.554 72.7348C161.532 71.9067 162.526 71.091 163.541 70.289C165.909 70.8417 168.228 71.4679 170.515 72.1489C168.936 72.5862 167.33 73.0649 165.768 73.5633C164.587 74.4332 163.441 75.2633 162.292 76.0806C158.153 79.0118 153.84 81.6923 148.097 85.5713C148.951 85.4534 149.803 85.3383 150.655 85.2333C146.514 87.0901 142.422 89.1072 138.406 91.2743C141.221 88.4697 144.498 85.4357 147.302 82.9928C140.994 84.0825 133.199 91.3624 129.374 95.1887C124.129 100.402 124.677 98.484 120.909 102.488C120.315 103.133 120.843 103.854 119.599 105.037C113.197 110.862 101.787 123.368 106.79 114.544C116.676 104.073 124.877 94.5354 136.813 86.6557C132.363 86.9647 137.833 81.6586 146.207 75.2666ZM60.0233 316.605C58.8763 312.002 59.4177 302.731 60.3117 296.488C60.3117 296.481 60.3118 296.474 60.3119 296.466C60.5083 295.073 62.1044 291.96 61.9816 296.487C61.7838 303.793 59.3135 307.397 60.9463 311.231C60.6251 312.948 60.3384 314.823 60.0233 316.605ZM60.11 332.615C59.5015 337.178 57.66 335.092 58.1733 329.403C58.1719 329.403 58.1704 329.403 58.1689 329.403C58.3849 327.042 59.8257 331.687 58.3757 323.219C59.5332 321.475 60.5876 319.774 61.7096 318.084C61.7179 320.142 61.7399 322.037 61.7468 324.242C59.8607 322.793 60.7144 328.047 60.11 332.615ZM102.776 120.75C103.654 122.368 105.432 120.143 109.503 117.379C106.448 120.687 103.509 124.105 100.709 127.612C101.352 125.319 102.033 123.043 102.776 120.75ZM190.631 62.951C190.637 62.9493 190.644 62.9475 190.65 62.9458C192.009 62.3091 193.407 61.6804 194.797 61.0771C195.801 61.4618 196.795 61.8525 197.8 62.2496C202.807 60.5417 208.023 59.0048 213.221 57.6266C212.847 59.532 203.325 60.8014 198.561 63.2437C190.927 64.381 187.118 64.4783 186.188 63.0914C187.652 63.0289 189.142 62.9826 190.631 62.951ZM620.043 839.995C621.898 839.429 623.705 838.859 625.511 838.285C623.082 838.131 620.626 838.024 618.11 837.819C611.73 840.215 611.063 838.257 602.513 838.541C576.483 839.301 583.387 842.674 559.766 837.683C578.733 837.867 571.375 835.502 582.814 833.59C585.197 834.975 573.895 838.212 581.578 838.815C594.777 837.232 607.396 835.707 621.98 834.323C621.547 834.093 621.116 833.863 620.681 833.633C618.333 833.853 616.103 834.064 613.783 834.271C616.268 833.565 618.646 832.86 621.19 832.13C618.033 833.696 626.151 832.63 625.104 834.35C624.656 835.119 621.104 836.275 618.952 837.051C624.513 837.291 630.12 837.46 635.716 837.594C632.798 838.322 630.041 839.03 627.143 839.73C624.754 839.831 622.481 839.914 620.087 840C620.072 839.998 620.058 839.997 620.043 839.995ZM513.266 53.0968C516.866 52.1993 521.972 51.6857 527 51.6606C531.883 51.6367 536.445 52.0549 539.79 53.0058C535.48 53.0189 531.344 53.0339 527 53.049C522.424 53.0652 517.847 53.0814 513.266 53.0968ZM185.338 61.9897C186.147 62.0615 186.933 62.1417 187.745 62.2231C184.689 63.6527 181.654 65.176 178.726 66.7866C177.847 66.1833 176.952 65.5893 176.036 65.0122C179.077 63.9126 182.192 62.9062 185.338 61.9897ZM60.9868 222.304C61.202 219.828 61.2541 219.577 61.749 216.494C61.7478 216.498 61.7466 216.501 61.7455 216.505C61.8915 215.309 63.8666 205.126 64.3745 206.386C63.5924 211.426 62.8876 216.819 62.3282 222.053C61.8782 222.165 61.4447 222.153 60.9868 222.304ZM74.6256 164.594C74.6296 164.588 74.6335 164.582 74.6375 164.577C75.4245 162.958 76.3005 161.48 77.1149 159.823C75.3229 166.296 73.2304 166.569 71.6472 172.51C70.1567 178.476 70.1465 182.339 66.3782 186.791C66.4788 184.794 66.4879 182.618 66.616 180.541C70.1024 172.366 70.0122 169.912 71.7593 162.953C72.7151 163.505 73.667 164.047 74.6256 164.594ZM503.675 835.544C501.92 836.811 499.962 835.568 499.759 835.553C499.763 835.551 499.767 835.55 499.77 835.549C484.222 836.722 501.794 834.847 487.119 834.65C489.302 834.333 491.45 833.999 493.613 833.679C496.96 834.29 500.41 834.982 503.675 835.544ZM67.1222 702.637C67.4424 702.408 67.7568 702.153 68.0788 701.928C70.2412 710.069 72.308 711.57 73.5054 718.469C71.0941 713.374 68.9771 708.072 67.118 702.639C67.1194 702.638 67.1208 702.638 67.1222 702.637ZM55.5099 265.985C55.1401 256.251 55.1633 248.999 56.8975 239.8C56.8994 239.793 56.9014 239.786 56.9033 239.779C57.0073 239.252 57.6056 241.875 57.8459 241.194C57.8552 239.29 57.8176 237.302 57.8282 235.351C58.4644 235.137 59.0995 234.936 59.732 234.724C59.1334 240.172 58.6272 245.518 58.172 251.014C58.5745 250.216 58.9759 249.403 59.3804 248.617C59.313 253.298 59.2939 257.937 59.3096 262.537C58.3576 260.872 57.4062 259.29 56.4601 257.601C56.1286 260.41 55.8215 263.136 55.5099 265.985ZM151.083 813.322C149.967 812.213 152.737 813.034 150.875 811.556C149.014 810.094 144.943 808.45 146.405 808.018C149.16 809.552 152.101 811.079 154.978 812.491C146.98 805.774 137.659 801.418 138.977 799.249C146.177 805.051 152.954 808.857 161.019 812.371C161.471 812.566 161.929 812.759 162.392 812.951C162.092 813.343 161.335 813.487 160.417 813.529C157.501 813.647 152.945 812.671 156.327 816.136C154.585 815.234 152.761 814.265 151.104 813.329C151.097 813.326 151.09 813.324 151.083 813.322ZM325.073 25.2057C331.239 25.3247 344.979 24.4771 352.674 25.6449C354.518 25.9317 360.853 29.6645 360.811 30.1569C360.631 31.8148 352.921 32.0425 361.165 33.1208C358.408 33.1325 355.689 33.1957 352.981 33.2271C353.469 34.3408 353.954 35.4516 354.423 36.5616C357.741 36.3922 361.133 36.2231 364.412 36.0515C364.575 36.4203 364.737 36.7899 364.9 37.1588C352.99 37.1681 359.981 38.5903 353.797 39.9192C359.548 40.5865 365.213 41.2538 371 41.9243C367.659 41.8423 363.785 41.7817 360.931 41.6854C360.535 43.5741 367.406 43.1231 368.622 43.4733C375.282 45.4495 341.289 44.4567 338.547 47.2243C343.947 47.5179 349.722 47.8103 355.2 48.1095C353.609 48.4492 352.01 48.7895 350.444 49.1298C337.855 47.2457 323.727 46.5968 309.04 45.5573C307.712 45.6484 306.393 45.7426 305.105 45.8317C305.497 46.6802 305.869 47.5257 306.263 48.3743C304.308 48.4961 302.242 48.621 300.248 48.7487C306.111 45.8694 297.979 45.9824 288.091 44.4687C293.263 43.3727 299.783 43.8812 299.297 42.0489C281.338 43.7078 260.164 42.2799 242.766 45.1661C238.437 45.9024 238.644 48.1869 228.515 48.971C228.831 48.676 228.842 48.2016 229.031 47.8377C211.633 50.9116 201.278 53.044 183.528 56.8727C184.767 57.3943 185.985 57.9357 187.213 58.4799C190.772 57.0517 194.367 55.7337 198.043 54.5101C200.886 55.3894 197.201 56.6122 208.422 54.5741C217.632 53.077 212.073 53.35 214.526 52.5477C217.846 51.4883 221.017 52.2053 224.661 51.1446C227.507 50.3428 224.193 49.4987 231.799 49.0314C228.87 50.825 226.036 52.6909 223.177 54.5685C221.333 54.4483 219.513 54.3339 217.645 54.2432C219.432 53.5928 221.166 52.971 222.954 52.3513C216.57 53.8486 210.626 55.4083 204.239 57.3731C205.962 54.8325 199.345 56.8976 195.758 58.0177C190.226 59.7454 194.692 57.1276 191.051 58.2879C187.427 59.492 183.937 62.1412 177.451 64.0256C180.572 61.9153 175.6 62.7244 176.204 61.5697C176.792 60.384 183.765 57.8719 176.715 59.1996C164.231 64.61 179.13 62.6158 170.953 66.3853C161.456 71.0984 156.706 67.7188 159.09 65.0825C160.984 62.9982 169.392 59.5405 171.574 57.7987C160.925 60.7127 158.149 63.7131 156.813 65.5329C156.155 66.4632 155.838 67.2028 155.138 67.8211C147.57 74.7567 150.196 65.8295 141.167 74.073C140.72 72.9535 140.303 71.9559 139.888 70.874C138.233 72.1829 137.221 73.1813 135.222 74.7358C142.695 72.5556 137.542 75.8004 135.008 77.5607C131.008 80.3469 137.832 76.9851 136.935 77.9673C134.499 80.5389 129.913 83.4751 133.208 82.3337C131.719 82.8238 130.127 83.4089 128.61 83.9685C124.326 87.855 117.64 100.08 126.496 91.3792C126.75 93.5272 123.134 95.3636 120.614 97.2244C118.098 99.0838 118.93 99.9145 116.787 101.608C108.366 108.504 112.04 102.175 112.248 99.797C102.717 110.931 112.861 100.967 99.5109 117.022C99.1985 119.35 106.407 113.017 101.839 119.504C99.2456 119.205 94.0653 122.589 86.8553 131.705C86.6397 132.921 86.4429 134.134 86.2533 135.346C81.1655 139.503 80.8529 135.647 77.1923 147.082C76.3581 139.983 76.5304 143.626 71.5505 150.822C71.0795 151.512 70.5654 152.239 70.0032 153C68.6914 154.786 70.0684 149.83 68.2659 152.35C67.4433 153.507 66.6518 156.852 64.817 159.749C63.8865 161.13 59.3248 167.781 58.5593 173.236C61.8931 170.223 60.7096 180.314 65.0839 172.775C59.8933 187.569 58.9501 198.836 60.0874 180.82C58.3657 184.526 56.7607 188.326 55.2584 192.184C55.2082 195.067 55.2043 197.97 55.2491 200.869C53.3766 200.99 52.7683 200.439 51.5417 211.576C51.7453 206.723 52.0502 201.855 52.5113 196.951C52.1714 196.72 51.9128 195.983 51.5242 196.075C50.9682 202.119 49.0806 218.91 49.2611 222.992C49.3429 227.121 50.2766 219.272 50.6389 220.506C53.5903 230.589 50.798 229.518 50.9324 236.527C51.0307 240.657 52.1972 230.923 52.2054 233.13C52.2048 241.275 49.8963 244.812 49.5013 252.049C50.8204 249.549 52.1709 247.061 53.5205 244.702C53.0085 252.166 52.6502 260.511 52.8127 267.528C52.8771 270.252 53.8302 268.224 53.8759 268.67C54.1028 270.908 54.3629 279.912 54.3524 280.911C54.2153 288.048 52.9818 288.31 52.8167 295.277C52.7489 292.496 52.6923 290.005 52.6392 287.252C50.6641 285.987 48.6907 284.702 46.7145 283.446C46.4342 290.354 46.2019 297.242 45.9923 304.122C46.706 299.093 47.4317 293.991 48.1796 289.012C49.6654 296.845 51.2032 304.874 52.7696 312.668C51.7516 316.85 50.7424 320.777 49.7366 324.969C49.9645 336.03 53.9974 333.885 50.4642 339.115C50.7578 342.411 51.0529 345.71 51.3456 348.969C50.843 348.5 50.3394 348.037 49.8368 347.57C50.1438 351.512 50.4504 355.523 50.7631 359.442C52.544 355.325 54.4186 351.178 56.1496 347.087C56.5326 354.862 55.0232 355.067 54.6458 356.198C53.9346 358.365 54.4123 362.098 54.4133 365C54.4136 366.154 54.3359 367.164 54.0697 367.87C53.9073 368.294 53.5675 366.5 53.1206 365C52.6944 363.548 52.1709 362.377 51.6111 363.675C51.5678 363.776 51.3729 364.25 51.0944 365C49.9431 368.051 47.3624 375.703 48.1462 380.956C48.91 380.834 49.8465 380.33 50.6773 380.064C51.1412 388.839 47.1544 393.313 46.0369 392.15C46.8193 396.824 46.8846 403.656 48.1067 404.616C48.1365 407.004 48.1647 409.374 48.1945 411.763C45.2184 409.274 45.7626 419.235 48.322 419.888C48.3853 415.785 48.452 411.678 48.5153 407.575C51.6523 410.677 53.5458 398.209 50.64 424.153C49.0081 429.113 50.8623 415.335 49.6403 419.377C48.929 426.398 49.5241 432.99 48.3879 439.665C46.9685 447.97 45.6033 437.751 47.4102 457.102C51.9368 414.419 50.4681 462.956 51.8726 483.002C47.914 487.882 46.3502 501.713 46.9671 521C47.0469 523.535 47.1633 526.135 47.316 528.787C48.0483 527.369 48.1273 524.247 48.152 521C48.1693 518.768 48.1601 516.504 48.3286 514.766C48.7383 510.541 49.4765 515.112 50.0577 509.849C50.6388 504.584 51.4287 493.401 52.3076 488.071C53.0119 492.585 54.6768 514.868 52.6767 500.135C51.7548 508.359 50.8139 513.321 50.3012 521C50.1282 523.631 50.0039 526.549 49.9461 529.95C51.889 534.011 53.0923 533.739 53.1625 547.03C50.4551 539.175 48.6012 554.246 45.8104 550.929C46.4451 541.564 49.1611 546.789 50.4518 541.313C50.5803 540.807 49.8974 531.962 49.9461 529.95C47.5148 538.852 46.6127 541.868 43.7146 536.444C43.9706 542.647 43.613 546.634 44.9959 547.183C44.398 548.488 43.7999 549.793 43.2026 551.062C43.2213 553.104 43.281 554.98 43.2758 557.134C45.3532 554.177 44.083 559.85 45.0461 564.026C46.0124 568.147 47.6242 562.593 47.7131 573.887C48.1759 570.057 48.5781 566.73 49.0256 563.045C49.5906 570.332 50.1745 577.521 50.7877 584.857C52.0017 579.709 53.8277 568.642 55.508 568.966C54.8871 572.329 56.0923 583.759 56.1572 585.006C56.3816 589.802 55.296 587.196 55.2738 587.561C54.8481 595.229 55.3268 601.481 53.7853 604.353C54.6304 610.111 54.3283 614.414 54.5697 620.429C54.7085 623.794 55.8627 623.089 55.7127 625.038C54.8315 638.018 52.4998 625.866 57.0109 650.535C57.5968 647.421 58.2401 644.494 58.8813 641.391C59.3624 644.228 59.8511 646.876 60.372 649.699C60.3645 651.595 60.3561 653.372 60.3716 655.292C58.5977 655.404 56.8194 655.508 55.0454 655.619C55.1287 657.72 55.2195 659.726 55.3325 661.832C54.8064 658.333 54.3192 654.75 53.8757 651.263C53.5391 650.963 53.2041 650.683 52.8679 650.381C52.7764 655.638 52.7686 661.02 52.8635 666.313C53.489 666.345 54.1186 666.375 54.744 666.406C55.311 678.33 54.8226 678.764 58.51 689.563C60.1402 698.134 64.4767 704.296 66.9396 708.619C67.1241 710.408 67.3238 712.168 67.5784 713.98C68.4322 714.885 69.2886 715.767 70.159 716.643C70.2551 718.975 70.4121 721.324 70.6313 723.669C72.6559 724.167 73.174 724.592 70.6503 716.362C72.7031 717.866 75.6403 725.463 78.4536 731.592C79.5888 734.117 80.6245 736.431 81.3357 738.078C83.2421 742.432 79.1654 738.723 79.2815 739.328C79.6251 741.433 84.2466 747.864 85.0811 749.285C88.5076 755.414 91.4697 759.351 95.0902 764.568C95.7869 765.585 97.1527 768.942 97.3238 769.19C98.6303 771.084 102.001 775.686 102.441 776.165C125.347 800.356 102.963 772.615 125.363 793.374C125.045 792.322 124.791 791.321 124.509 790.283C126.276 791.728 128.086 793.157 129.902 794.537C131.875 796.711 128.517 795.332 133.571 798.211C132.821 798.591 132.066 798.966 131.297 799.324C133.568 800.525 135.779 801.628 138.13 802.766C139.856 807.351 152.457 815.616 150.091 817.678C149.246 818.473 139.333 813.734 143.701 817.682C147.646 820.285 145.532 817.58 147.219 818.494C151.094 820.569 153.632 821.993 155.439 823.114C159.355 825.497 159.848 826.499 163.55 827.805C164.673 827.48 165.834 827.146 166.962 826.796C168.848 827.818 170.734 828.791 172.692 829.743C173.337 829.443 173.983 829.141 174.614 828.832C172.763 828.14 170.665 827.308 168.998 826.601C171.996 826.168 194.255 831.785 185.375 830.927C181.732 830.634 175.516 828.252 178.789 831.749C184.889 833.372 191.87 834.826 198.383 835.838C198.481 836.365 198.566 836.89 198.668 837.416C207.511 838.829 199.881 835.325 200.141 834.284C202.128 834.656 204.121 835.005 206.108 835.325C206.864 835.945 207.603 836.582 208.404 837.187C208.612 836.436 209.99 834.917 215.815 836.418C219.58 837.363 213.277 838.477 220.649 839.166C220.264 837.905 217.779 836.182 225.969 836.743C226.628 838.068 227.623 839.32 228.121 840.686C238.431 840.512 242.929 842.779 255.022 842.065C262.68 841.603 273.191 838.841 277.967 843.778C283.547 844.055 281.782 842.806 283.441 842.578C291.261 841.488 297.017 843.844 298.436 844C307.725 844.988 311.831 844.228 319.361 845.356C318.955 844.463 318.736 843.619 318.414 842.749C311.532 844.033 308.051 843.949 298.335 843.529C301.57 843.397 304.861 843.253 308.074 843.107C307.551 842.379 307.035 841.651 306.537 840.927C276.571 843.327 283.685 838.98 308.698 838.315C310.847 839.673 313.117 841.026 315.211 842.383C329.694 840.456 336.543 842.225 352.909 842.661C354.822 842.711 361.998 841.943 364.996 841.905C364.945 841.9 364.894 841.895 364.844 841.889C366.739 840.627 364.172 840.045 363.869 838.917C365.513 838.775 367.17 838.634 368.838 838.493C369.825 838.721 370.462 838.938 371 839.13C372.47 839.664 373.183 840.006 378.525 839.855C377.545 838.998 376.578 838.141 375.599 837.284C383.56 837.255 388.77 838.185 396.18 837.783C394.934 838.107 393.705 838.432 392.459 838.756C408.586 839.583 395.752 844.621 407.939 842.114C408.714 842.553 409.469 842.997 410.245 843.436C405.224 843.544 400.201 843.649 395.201 843.757C395.099 844.379 394.989 844.998 394.907 845.62C400.276 845.434 405.67 845.242 411.039 845.056C407.12 845.473 403.177 845.891 399.258 846.308C405.483 846.606 411.71 846.904 417.935 847.202C411.325 844.915 419.895 844.636 418.284 842.371C429.307 844.256 437.965 846.741 455.051 845.15C458.438 844.833 456.598 843.25 466.212 845.177C463.885 842.658 475.928 841.477 474.381 839.082C471.034 839.197 467.564 839.27 464.319 839.411C468.014 840.242 468.626 842.527 463.014 843.206C455.849 844.07 445.399 842.486 445.826 845.023C442.97 844.904 440.313 844.833 437.538 844.733C438.68 844.103 439.798 843.47 440.921 842.841C433.024 843.827 428.062 843.507 424.266 841.92C433.675 841.555 443.064 841.194 452.473 840.833C451.087 840.725 449.682 840.616 448.296 840.512C455.42 838.891 448.071 837.356 461.36 837.01C461.279 837.751 461.213 838.493 461.132 839.238C465.97 837.255 479.216 837.266 474.99 834.986C478.991 835.686 479.806 836.129 482.072 834.9C492.625 836.633 499.403 838.824 495.647 841.439C499.566 841.018 503.487 840.597 507.385 840.176C505.119 839.461 502.851 838.749 500.586 838.034C507.404 838.078 514.272 838.122 521.069 838.163C521.722 840.279 507.946 838.805 511.921 840.696C512.716 841.076 516.385 840.263 517.349 840.477C527.514 842.79 511.556 841.119 514.553 842.891C525.199 843.276 522.375 844.858 527 844.897C528.99 844.914 532.3 844.655 538.455 843.912C539.013 844.523 539.612 845.146 540.126 845.753C547.394 845.787 546.744 844.407 553.015 844.139C556.855 843.972 561.854 846.385 566.092 844.721C566.887 844.411 559.558 841.485 574.831 841.548C586.697 841.578 581.674 843.701 588.144 844.388C594.48 845.084 609.128 841.952 613.5 845.126C610.059 844.769 605.913 844.614 602.118 844.316C600.639 844.98 599.185 845.635 597.698 846.292C606.156 845.354 615.015 846.139 620.684 844.445C632.132 846.483 644.709 843.642 641.146 841.183C637.448 841.745 641.557 842.703 636.356 842.209C635.796 841.618 635.208 841.032 634.647 840.44C643.415 840.143 649.535 839.718 645.65 841.831C646.997 841.799 648.367 841.762 649.747 841.719C649.908 840.35 650.038 838.978 650.195 837.609C651.821 837.351 653.367 837.094 655.017 836.82C656.857 836.985 658.669 837.146 660.495 837.297C658.278 839.607 653.984 840.131 668.013 840.041C667.981 839.299 667.967 838.558 667.935 837.817C679.575 837.481 680.148 839.38 694.612 836.803C683.943 841.367 677.091 837.447 677.828 842.592C674.969 842.607 672.069 842.587 669.216 842.537C668.86 843.326 668.504 844.115 668.162 844.901C683.57 843.26 707.48 833.78 718.058 833.501C719.138 832.747 720.195 832.043 721.271 831.229C730.852 829.86 733.485 824.664 742.045 822.118C742.634 821.936 743.253 821.763 743.906 821.601C744.934 821.274 745.05 826.296 756.644 819.256C756.075 818.97 755.453 818.284 754.868 817.841C757.519 816.624 760.146 815.367 762.743 814.047C762.903 813.342 763.079 812.622 763.229 811.915C759.034 814.517 754.761 816.954 750.401 819.239C753.857 817.053 757.267 814.749 760.577 812.364C755.68 814.593 753.637 815.772 755.649 812.998C759.477 810.505 763.219 807.874 766.864 805.128C767.047 804.581 767.222 804.033 767.4 803.486C765.038 803.987 762.676 804.471 760.318 804.863C770.397 798.912 778.192 792.396 786.11 787.601C787.437 786.754 784.464 791.562 791.158 783.295C791.763 783.663 792.361 783.853 792.945 784.166C800.551 773.403 803.655 770.664 812.862 760.531C806.608 766.855 811.968 761.047 812.673 758.812C813.171 757.297 809.756 762.173 809.737 761.322C809.767 760.48 812.531 753.092 808.557 758.261C802.17 773.56 795.701 774.024 782.221 789.494C784.21 786.965 786.144 784.38 787.991 781.776C786.688 782.569 785.514 783.263 784.097 784.089C792.753 776.702 788.445 780.176 791.215 776.395C793.968 772.583 799.052 765.853 802.32 761.263C803.354 759.818 802.967 761.888 805.445 758.716C807.167 756.556 810.247 749.639 812.514 749.054C814.024 748.615 809.832 760.59 818.945 746.24C821.502 744.036 816.954 750.845 816.931 751.039C817.172 752.999 823.623 744.506 825.084 739.718C825.202 739.339 822.512 742.229 824.193 738.399C824.74 737.131 825.27 735.948 825.79 734.835C828.954 727.983 831.727 723.795 834.866 719.024C833.478 717.731 834.389 709.389 837.4 699.587C837.041 698.95 836.665 698.356 836.294 697.737C836.195 699.318 836.059 700.955 835.918 702.541C835.185 704.113 834.467 705.853 833.646 707.342C836.001 697.396 833.799 695.379 833.95 690.504C833.995 673.649 838.458 684.596 838.995 687.833C838.158 689.906 837.253 691.907 836.346 693.903C836.991 693.793 837.641 693.681 838.284 693.594C842.878 668.65 843.004 690.557 846.206 677.841C843.739 674.076 844.726 664.629 847.557 652.665C847.647 651.326 847.746 649.969 847.824 648.602C847.406 648.346 846.742 648.294 846.481 647.914C846.941 633.325 851.522 630.894 852.046 629.509C854.244 623.409 851.716 618.456 851.748 616.665C851.877 608.958 853.11 606.741 852.736 599.47C852.316 591.566 851.315 596.952 850.537 594.557C849.92 592.665 849.883 586.419 849.235 583.896C849.774 584.915 850.3 586.042 850.84 587.049C851.679 578.956 852.454 572.262 852.674 563.064C848.696 552.663 855.477 543.804 849.976 547.39C849.587 556.106 848.943 560.961 847.522 565.678C847.369 559.871 847.209 554.185 847.039 548.469C847.645 546.806 848.235 545.619 848.851 543.622C847.575 539.345 848.127 529.386 847.751 525.515C847.589 523.829 847.423 522.333 847.258 521C845.636 508.057 844.141 511.321 847.477 496.18C847.834 508.2 849.618 508.181 849.373 520.101C850.647 517.529 850.383 511.472 851.91 515.391C851.534 503.859 850.17 507.587 848.96 503.099C847.916 499.228 847.857 491.433 846.501 491.873C847.247 491.076 847.969 490.459 848.714 489.665C848.706 482.195 848.706 474.726 848.698 467.256C849.477 470.44 850.257 473.623 851.031 476.807C851.326 474.4 851.618 471.99 851.913 469.584C849.491 451.212 853.929 419.532 847.846 424.593C847.652 415.734 848.415 414.626 849.566 409.81C849.104 409.279 848.72 408.763 848.206 408.232C848.689 402.518 846.955 398.131 847.406 393.09C847.853 388.049 849.491 386.798 846.738 386.063C847.528 382.798 848.184 379.551 848.918 376.306C848.292 374.348 847.674 372.391 847.052 370.453C847.247 368.637 847.441 366.818 847.635 365C847.768 363.734 847.901 362.475 848.035 361.224C846.721 359.586 847.286 347.549 846.397 342.256C847.806 337.187 852.274 337.345 851.44 325.509C850.335 325.815 849.233 326.117 848.128 326.423C848.35 323.756 848.569 320.942 848.787 318.242C849.147 318.078 849.507 317.936 849.867 317.773C849.763 319.15 849.658 320.517 849.548 321.914C850.154 320.7 850.757 319.518 851.362 318.338C850.437 314.27 849.504 310.014 848.563 305.917C847.926 311.486 847.273 317.132 846.609 322.748C845.769 315.714 846.548 310.802 845.588 304.702C847.064 299.346 847.963 301.309 849.642 303.46C849.481 301.468 849.323 299.5 849.158 297.528C850.827 298.853 851.792 295.38 851.765 307.038C852.232 306.251 852.675 305.405 853.159 304.622C853.067 302.706 853.454 301.469 853.249 299.405C852.687 293.699 849.703 289.424 848.689 289.834C848.159 290.033 849.261 295.595 848.501 295.392C846.648 294.845 847.31 282.044 845.694 300.546C844.451 294.438 845.321 293.082 845.543 286.272C844.939 286.814 844.337 287.341 843.732 287.865C843.961 284.686 844.183 281.635 844.393 278.438C847.661 282.735 848.259 259.529 851.538 280.35C851.545 274.132 851.519 268.053 851.436 261.829C851.807 263.085 852.173 264.352 852.54 265.631C852.461 268.383 852.375 271.173 852.281 273.979C852.786 270.645 853.277 267.408 853.753 264.073C852.743 256.369 851.455 253.355 849.886 249.89C849.306 258.896 850.556 255.969 851.103 262.924C850.212 262.711 849.413 263.064 848.464 262.485C850.184 258.885 848.285 246.995 848.011 244.353C847.211 236 849.43 242.448 849.084 236.871C848.723 231.264 847.067 224.822 848.335 220.067C847.351 220.256 846.363 220.728 845.494 221.148C844.206 212.551 845.524 214.156 845.578 213.243C846.08 198.597 842.786 191.08 837.925 175.32C838.247 177.435 838.549 179.512 838.818 181.647C833.322 170.335 836.573 178.138 838.318 188.644C836.244 178.884 832.741 173.923 829.855 167.642C827.947 163.491 825.549 157.258 823.474 152.368C822.404 149.813 821.489 147.6 820.969 146.174C822.259 147.952 823.46 149.83 824.591 151.788C828.66 158.812 831.534 166.915 834.372 175.166C834.962 173.647 835.401 172.212 836.026 170.578C831.779 164.754 831.506 160.653 830.852 158.433C829.194 153.059 827.738 152.888 827.29 150.386C827.194 149.883 827.133 149.285 827.107 148.531C826.585 148.994 826.138 149.367 825.654 149.806C819.599 137.535 811.954 124.516 804.39 119.151C805.156 117.501 805.989 116.035 806.673 114.244C801.989 110.452 799.566 105.873 795.907 102.456C792.246 99.1008 792.645 101.344 788.155 97.684C787.323 97.0155 786.266 94.8764 783.902 93.5616C781.512 92.1374 771.234 89.4875 772.758 85.7134C768.9 82.6569 765.218 79.7929 761.258 77.0315C765.28 79.4814 769.218 82.0846 773.053 84.808C770.481 81.5702 767.809 78.4093 765.002 75.2984C764.086 75.7071 763.165 76.1332 762.282 76.5549C754.501 72.317 749.02 68.1915 741.838 64.2787C740.201 63.393 738.458 62.5319 736.589 61.7269C734.898 61.034 738.129 64.2664 730.92 60.657C723.681 57.2498 718.898 52.0172 705.02 49.9109C704.31 49.8099 699.844 51.2468 695.288 48.6862C694.238 48.096 699.05 48.4532 696.577 47.4649C694.155 46.4141 682.686 44.1942 681.961 42.949C682.028 43.3828 682.687 43.9142 682.973 44.3873C680.993 44.3115 678.943 44.2457 676.966 44.2026C676.873 43.4443 676.764 42.6831 676.668 41.9285C665.087 42.3372 659.076 44.588 642.44 42.7272C647.084 44.0476 651.694 45.4155 656.28 46.8383C657.622 46.1802 658.959 45.5215 660.267 44.8703C667.935 45.8047 675.591 46.9136 683.165 48.3025C684.514 47.6263 685.909 46.9669 687.301 46.3136C689.312 46.7412 691.305 47.1844 693.318 47.6598C692.702 48.1812 692.084 48.7004 691.451 49.222C695.464 49.7637 699.445 50.3909 703.446 51.146C694.728 52.7987 680.953 46.7891 681.551 50.0076C679.828 49.2874 678.073 48.5755 676.352 47.8816C675.377 49.2681 671.805 48.376 665.349 47.5314C666.723 48.397 668.333 49.2843 669.594 50.162C663.46 48.4489 652.312 47.6971 645.801 46.9488C642.963 46.6136 645.87 45.6952 645.029 45.5208C640.659 44.5989 632.188 46.1241 630.489 45.9186C620.075 44.6498 613.288 40.9159 601.792 43.0813C613.654 43.8669 607.16 43.5112 611.354 44.9011C612.718 45.337 627.853 46.5511 608.814 45.7345C606.53 45.5695 571.976 42.7798 583.351 40.9931C577.732 41.5539 573.367 42.2299 568.172 42.8509C555.658 37.8265 559.962 42.5255 563.617 45.1123C561.566 45.1176 559.588 45.1391 557.44 45.1351C561.991 42.4304 538.97 42.2344 531.211 43.6074C528.59 44.0618 535.918 44.929 529.855 45.3387C528.94 45.2787 527.982 45.2131 527 45.1448C524.906 44.9967 522.721 44.8357 520.642 44.6905C525.05 46.4042 516.398 47.0646 516.519 48.808C510.987 47.2545 506.756 43.9617 509.796 42.177C505.225 42.8996 500.629 43.6214 496.057 44.3477C498.18 44.7613 500.331 45.1712 502.454 45.5847C487.511 44.4894 468.298 46.9819 465.175 43.3195C463.195 43.3456 461.194 43.3681 459.214 43.3942C458.601 44.0127 458.01 44.6323 457.397 45.2508C448.438 44.7144 439.499 44.1744 430.54 43.6381C438.517 43.2543 440.416 42.3739 448.782 43.0888C445.558 42.3775 442.274 41.6622 439.111 40.9509C426.517 42.8659 424.799 44.1245 405.836 43.5546C404.978 43.5285 390.651 41.9226 390.161 41.7661C387.916 41.0508 391.323 40.0117 390.324 39.6502C387.548 38.6368 370.678 36.0923 371.005 35.7085C375.128 30.9992 431.887 30.9368 447.237 30.6946C473.914 30.2739 500.492 30.018 527 29.8808C599.369 32.0128 673.628 20.6819 746.967 54.4061C785.36 74.5659 817.21 106.725 837.108 145.286C846.116 162.594 851.282 181.335 854.447 199.78C854.736 201.45 855.299 200.604 855.445 201.311C856.348 205.749 855.849 210.22 856.017 211.89C856.361 215.359 857.117 213.327 857.424 215.886C860.41 242.273 860.393 266.87 860.988 292.654C861.023 294.337 860.199 292.622 860.38 295.59C860.479 297.174 861.761 301.826 861.81 305.327C861.976 317.343 861.611 327.395 861.647 340.028C861.667 346.987 861.564 357.19 861.582 365C861.582 365.016 861.582 365.031 861.582 365.047C861.59 368.454 862.152 372.004 862.171 375.37C862.197 380.147 861.058 379.171 860.987 379.906C860.678 383.131 861.928 383.578 861.899 386.64C861.839 392.335 861.004 392.641 861.075 399.867C861.127 405.032 861.786 416.852 861.98 423.364C861.011 438.592 861.396 457.781 861.716 471.988C861.906 480.398 860.737 481.177 860.741 484.606C860.763 496.689 862.257 505.859 862.305 517.208C862.31 518.483 862.308 519.747 862.3 521C862.207 534.551 861.377 546.886 861.269 560.262C861.25 562.612 862.323 562.107 862.341 564.442C862.408 573.004 862.518 584.113 862.258 591.806C861.967 600.337 860.356 603.544 860.464 611.939C860.492 614.396 861.837 615.221 861.882 619.335C861.946 626.019 860.428 633.199 860.04 637.87C859.501 644.22 861.232 638.738 860.493 647.366C860.461 647.722 859.386 648.91 859.294 650.797C859.009 656.2 859.863 655.746 859.025 663.666C858.971 664.45 856.821 674.847 856.633 675.92C855.873 682.087 853.305 694.534 852.618 698.231C850.2 711.511 854.242 701.624 848.073 711.864C847.395 716.966 846.536 722.038 845.217 727.453C845.982 723.821 839.255 737.12 838.692 737.994C838.172 739.238 837.801 740.184 837.535 740.936C836.097 744.902 837.995 743.455 833.317 751.243C837.882 737.549 826.122 763.015 822.074 767.925C804.621 792.5 783.445 810.891 757.568 826.373C754.473 828.21 750.993 830.252 747.32 832.273C740.487 836.049 732.884 839.482 726.228 841.748C723.816 842.567 725.412 841.303 723.294 841.988C721.188 842.656 723.766 842.646 721.336 843.372C706.109 847.745 694.05 848.346 680.479 852.001C679.783 851.824 679.778 851.615 678.641 851.465C667.478 854.621 645.8 853.84 637.801 853.831C625.258 853.901 622.012 855.062 612.987 855.06C600.922 855.048 583.043 853.025 591.071 856.516C582.787 856.714 575.031 856.789 566.68 856.487C565.772 856.452 566.394 855.544 566.031 855.527C563.724 855.404 562.965 856.217 561.387 856.258C557.088 856.369 564.113 855.381 557.965 855.666C554.8 855.817 552.928 856.53 544.055 856.55C538.388 856.562 532.808 856.566 527 856.568C478.192 856.58 426.361 856.366 377.132 856.259C373.356 856.251 375.842 857.128 371.106 857.072C371.071 857.071 371.035 857.071 371 857.071C354.45 856.878 325.114 855.392 310.882 855.441C296.631 855.494 299.865 856.805 290.851 857.192C289.126 857.264 290.551 856.561 288.997 856.52C278.472 856.255 265.952 854.714 257.371 854.109C251.649 853.704 252.117 854.872 248.122 854.715C242.229 854.474 236.258 852.829 233.072 852.5C218.299 850.95 207.81 850.527 193.894 847.084C194.392 847.451 194.717 847.76 195.121 848.1C180.024 844.88 164.751 839.967 150.552 832.52C149.174 831.8 147.806 831.066 146.445 830.316C147.042 830.907 147.617 831.482 148.221 832.07C130.679 822.144 134.336 820.684 132.915 826.231C131.563 825.595 130.124 824.919 128.846 824.277C130.828 822.274 121.589 814.119 110.459 803.565C109.634 802.834 102.216 799.689 104.971 797.933C103.01 797.155 101.794 796.724 100.12 796.04C98.4402 793.08 96.8052 790.074 95.2906 787.074C93.9963 785.901 92.7032 784.689 91.4364 783.48C90.8052 783.696 90.4614 784.27 89.6351 784.248C83.9953 778.291 74.5507 764.42 71.1118 758.99C67.1881 753.136 63.2882 747.17 59.9316 741.213C55.5513 733.446 52.3348 725.581 51.0432 718.564C48.9904 712.78 49.5986 718.972 47.1624 710.152C47.4728 708.996 47.7771 707.884 48.1191 706.713C43.6579 700.212 44.8654 698.279 43.6155 688.376C42.8423 681.686 41.5712 677.426 40.9338 671.132C40.7771 669.53 41.6004 669.663 41.4489 668.566C40.9242 664.991 38.8807 654.62 38.6879 652.117C36.6843 628.853 36.4562 609.208 36.4629 587.392C36.4667 585.078 35.7095 588.09 35.7166 585.689C35.7289 581.805 36.9672 584.081 37.005 581.816C37.1103 575.514 35.8259 575.462 35.7134 566.73C35.5349 552.259 35.7241 536.701 35.9488 521C36.172 505.44 36.4322 489.723 36.4749 474.757C36.4749 473.818 35.7243 473.874 35.7169 472.853C35.6802 466.2 36.6948 459.466 36.6836 453.425C36.6687 443.402 35.6143 435.87 35.618 425.969C35.6217 406.618 36.1616 389.328 36.1915 369.426C36.1939 367.934 36.1952 366.46 36.1956 365C36.2021 350.513 36.1103 337.328 36.18 321.036C37.9862 264.055 30.5588 203.482 58.801 144.2C69.1073 124.197 82.7338 105.921 98.9129 90.484C100.464 89.0111 100.305 90.0978 100.752 89.6235C105.016 85.1455 104.888 84.1409 107.763 84.0684C113.425 78.6358 114.446 75.9116 122.17 70.2662C126.34 67.3358 124.457 71.2562 130.903 65.5132C136.916 60.5894 128.72 63.5011 149.546 53.3137C149.677 53.2542 149.956 53.1965 150.361 53.1121C151.721 52.8198 154.44 52.2253 157.742 50.4286C162.146 48.1542 156.405 49.3585 167.42 44.7185C193.684 33.981 227.794 31.6172 257.778 29.8606C259.657 29.7007 277.785 28.3345 281.345 27.9585C288.26 27.1597 286.738 26.1966 295.759 25.8012C302.618 25.5089 308.405 26.5649 316.466 26.2824C317.379 26.2495 319.073 25.0826 325.073 25.2057ZM649.395 836.48C650.992 835.23 653.688 830.966 663.673 831.353C664.627 831.386 659.807 834.697 665.326 834.648C659.984 835.456 654.679 835.956 649.395 836.484C649.395 836.483 649.395 836.481 649.395 836.48ZM369.039 51.6555C361.438 51.447 353.898 51.2406 346.29 51.041C351.607 50.5317 356.712 50.0278 361.963 49.5203C364.304 50.2314 366.648 50.944 369.039 51.6555ZM84.4008 744.389C84.3972 744.383 84.3935 744.377 84.3898 744.371C88.8817 750.642 93.7352 756.621 98.9024 762.261C98.0942 761.879 97.2843 761.489 96.4778 761.092C92.2739 756.679 88.2604 752.042 84.4701 747.22C84.44 746.275 84.4155 745.329 84.4008 744.389ZM58.8229 689.049C58.3716 684.055 59.3789 685.078 59.683 682.257C59.6816 682.258 59.6801 682.258 59.6787 682.258C59.7575 681.531 59.4042 678.126 59.2555 676.845C58.833 677.387 58.4393 678.072 58.0323 678.672C55.0725 667.182 57.1201 644.036 62.0747 673.125C61.3961 672.772 60.7235 672.432 60.0455 672.07C61.9859 686.531 64.4584 702.68 58.8229 689.049ZM759.408 802.145C768.246 793.287 770.982 790.718 782.796 781.563C781.687 783.441 780.541 785.308 779.357 787.161C777.12 788.385 774.885 789.55 772.621 790.673C772.615 790.677 772.61 790.682 772.605 790.686C772.627 791.479 772.644 792.275 772.672 793.058C768.376 796.271 763.938 799.312 759.408 802.145ZM59.2101 203.222C63.8603 200.464 61.205 201.039 60.6943 210.996C60.5464 214.453 61.707 211.218 61.5401 213.362C60.7505 224.888 58.0789 225.552 56.8909 222.81C57.4757 216.229 58.2356 209.644 59.2066 203.242C59.2077 203.236 59.2089 203.229 59.2101 203.222ZM282.883 46.734C282.89 46.7339 282.897 46.7337 282.905 46.7335C283.23 47.7238 278.526 48.108 283.867 48.9238C279.852 49.0141 275.712 49.1216 271.692 49.2537C272.894 49.1201 274.079 48.9935 275.274 48.8641C274.21 48.5535 273.15 48.24 272.099 47.9321C270.678 49.129 269.276 48.5036 265.051 48.2888C266.261 49.4663 267.47 50.6471 268.689 51.8287C263.793 51.6439 258.815 51.4981 253.833 51.4078C253.755 51.1027 253.676 50.7972 253.599 50.4921C251.78 50.9885 249.961 51.4966 248.122 52.0102C247.594 51.6745 247.086 51.3416 246.56 51.0071C244.383 51.4321 242.104 51.877 239.92 52.3339C239.165 51.5046 244.063 50.6997 235.356 51.66C237.994 50.5068 240.521 49.3887 243.211 48.2752C256.362 47.4022 269.677 46.9773 282.883 46.734ZM54.5177 294.591C54.5669 280.004 55.1691 284.113 57.1282 287.537C56.2526 289.936 55.384 292.222 54.5177 294.591ZM341.681 839.549C345.86 838.174 350.241 836.809 354.514 835.478C363.253 834.711 371.804 837.228 365.311 838.216C357.541 839.4 349.265 838.072 341.681 839.549ZM538.839 838.949C528.313 838.309 538.145 836.666 540.616 835.707C543.569 837.245 547.598 837.108 554.187 837.278C547.989 837.387 540.642 839.057 538.839 838.953C538.839 838.952 538.839 838.95 538.839 838.949ZM174.503 822.865C170.653 821.482 166.725 820.234 163.617 818.245C165.157 817.558 171.319 821.529 167.358 817.672C169.722 818.684 172.134 819.635 174.539 820.504C172.723 820.682 174.561 822.032 174.495 822.857C174.497 822.86 174.5 822.863 174.503 822.865ZM55.7967 436.358C54.2319 444.686 54.9015 446.264 55.9857 454.654C54.7116 455.836 52.5775 445.833 52.1077 439.567C53.3371 438.505 54.5673 437.439 55.7967 436.358ZM624.192 50.0022C626.235 48.4223 640.922 48.7645 648.146 49.7266C647.247 49.9129 646.384 50.1065 645.512 50.3016C638.367 50.1031 631.34 50.0212 624.192 50.0022ZM557.276 837.383C556.195 837.337 555.164 837.303 554.187 837.278C555.273 837.259 556.316 837.285 557.276 837.383ZM849.955 604.22C851.41 607.748 852.156 597.345 851.271 609.993C851.272 609.994 851.274 609.994 851.275 609.994C850.663 618.321 850.498 620.191 850.075 627.868C848.223 625.062 848.116 609.327 846.865 630.902C846.849 631.181 848.048 630.689 847.724 634.088C847.62 635.158 846.501 638.505 845.897 643.66C845.704 645.323 844.574 657.802 845.67 640.738C844.272 641.158 842.94 640.174 841.61 640.137C841.602 633.506 844.513 628.497 844.697 621.454C844.947 610.985 842.313 605.58 845.922 603.633C846.648 612.485 846.13 627.633 843.878 629.517C843.468 637.953 845.055 640.598 846.284 633.717C846.346 604.205 849.331 625.686 848.55 599.844C848.06 599.529 847.546 598.45 847.077 598.605C848.951 590.681 849.442 603.031 849.955 604.22ZM842.78 665.595C842.289 660.458 841.692 655.28 841.018 650.24C842.708 650.368 844.083 653.259 844.275 661.315C843.782 662.755 843.281 664.196 842.78 665.595ZM843.815 236.901C842.836 236.229 841.842 234.347 840.849 233.027C841.883 231.39 837.951 195.289 841.143 213.509C841.688 216.117 841.696 232.664 843.815 236.901ZM54.3993 378.531C53.7771 382.858 53.1539 387.168 52.5317 391.475C52.137 384.845 51.732 378.21 51.3299 371.58C52.3528 373.903 53.3764 376.207 54.3993 378.531ZM412.138 841.193C410.31 841.158 416.381 839.882 409.179 840.083C414.547 839.268 419.575 838.577 424.821 837.809C426.393 838.413 427.981 839.014 429.553 839.618C430.778 839.23 432.027 838.845 433.252 838.458C432.517 839.337 431.863 840.196 431.087 841.09C422.248 839.205 420.221 841.342 412.138 841.193ZM156.053 821.931C156.934 820.235 157.458 819.226 157.599 818.955L152.468 816.193C153.995 816.225 155.824 816.638 158.324 817.559C160.196 818.243 162.457 819.206 165.288 820.429C166.145 821.341 167.009 822.237 167.895 823.131C168.543 822.001 170.432 822.32 174.503 822.865C174.506 822.868 174.508 822.87 174.511 822.873C184.759 826.416 184.095 826.371 186.034 829.187C175.218 824.725 174.369 826.297 166.466 824.326C163.206 823.459 159.591 821.807 156.684 820.716C154.771 820.003 153.144 819.557 152.054 819.796L156.053 821.931ZM845.606 275.863C843.758 267.553 842.519 275.091 843.706 260.232C844.152 261.161 844.595 262.102 845.039 263.046C845.259 267.37 845.444 271.6 845.606 275.863ZM122.057 791.13C120.781 793.985 125.492 800.803 129.502 797.765C124.218 792.348 125.34 796.747 122.057 791.13ZM535.239 843.581C531.435 843.546 528.746 843.295 527 842.914C523 842.027 524.044 840.437 527 839.209C527.687 838.928 528.474 838.666 529.321 838.436C530.268 839.043 531.211 839.651 532.13 840.255C534.736 839.979 537.239 839.702 539.894 839.43C538.322 840.812 536.768 842.199 535.239 843.581ZM50.6921 553.962C52.8306 565.28 51.8427 541.766 53.1774 549.647C54.2404 555.979 52.1432 564.231 50.7981 561.1C50.7533 558.951 50.7202 556.535 50.6921 553.984C50.6921 553.977 50.6921 553.969 50.6921 553.962ZM52.1647 619.306C54.3663 617.389 53.7722 620.116 53.1219 611.186C52.9071 608.67 53.4176 588.401 51.6878 596.917C51.806 604.19 51.9415 611.801 52.1647 619.306ZM705.024 830.806C705.487 831.837 690.634 837.084 688.513 836.746C688.513 836.747 688.514 836.748 688.514 836.75C682.993 836.196 699.044 833.214 691.729 832.451C707.459 831.351 710.717 825.492 711.188 831.336C702.272 833.923 706.224 831.651 705.024 830.806ZM430.659 44.5169C430.652 44.5169 430.645 44.5169 430.638 44.5169C431.686 44.5632 440.325 46.0057 439.275 46.5054C428.885 46.0769 430.737 45.1274 421.065 46.6877C420.535 46.1852 420.08 45.6977 419.509 45.1915C423.347 44.8934 425.474 44.2897 430.659 44.5169ZM840.994 197.442C841.966 201.122 842.004 208.163 842.614 212.435C836.874 199.433 836.913 182.863 840.994 197.442ZM146.232 75.2461C146.224 75.2529 146.215 75.2598 146.207 75.2666C146.208 75.2631 146.211 75.2589 146.213 75.2554C146.219 75.2523 146.226 75.2492 146.232 75.2461ZM845.741 492.743C846.006 492.251 846.237 491.973 846.439 491.873C846.458 491.873 846.477 491.873 846.497 491.873C846.248 492.139 845.996 492.422 845.741 492.743ZM735.007 820.176C741.513 818.769 722.724 829.669 715.59 830.786C715.88 830.044 715.793 829.481 716.66 828.459C722.62 828.492 734.082 820.515 735.007 820.176ZM244.952 838.233C262.013 839.352 239.405 843.367 238.822 838.91C238.837 838.835 244.545 838.22 244.952 838.233ZM603.629 840.177C599.248 841.882 608.109 842.198 594.03 842.104C593.222 841.689 592.412 841.273 591.598 840.857C595.562 840.643 599.644 840.415 603.629 840.177ZM356.905 847.589C361.874 847.385 366.513 847.144 371 846.842C386.036 845.804 395.946 844.049 385.073 840.549C383.442 840.694 381.788 840.835 380.156 840.98C379.971 842.645 376.491 842.366 371 842.099C369.195 842.012 367.19 841.927 365.039 841.909C363.782 842.784 358.943 842.986 357.99 843.729C356.201 845.167 361.865 846.179 356.905 847.589ZM67.9641 155.755C68.158 156.23 68.3592 156.698 68.5542 157.168C67.5242 160.448 66.6212 163.748 65.8387 167.06C65.3535 166.295 64.8739 165.524 64.3991 164.748C65.4823 161.723 66.6627 158.734 67.9528 155.774C67.9566 155.768 67.9603 155.762 67.9641 155.755ZM844.438 687.056C840.615 684.417 840.612 691.225 839.091 705.219C841.148 699.271 842.908 693.183 844.438 687.056ZM60.6072 717.13C61.5686 716.312 62.5337 715.51 63.4982 714.689C60.061 708.102 59.2095 709.688 58.7958 713.616C59.3836 714.79 59.9888 715.964 60.6072 717.13ZM46.2463 611.417C46.081 614.466 46.9905 612.899 46.9797 613.214C46.7084 621.013 46.2902 622.091 47.4192 631.599C47.722 632.755 48.0376 633.86 48.353 635.017C50.6055 630.549 49.0975 627.406 50.2432 618.067C49.4495 619.734 48.6605 621.463 47.8727 623.174C47.8624 617.965 47.8924 612.815 47.9528 607.673C47.6779 607.064 47.4058 606.451 47.1316 605.836C46.8368 607.703 46.5051 609.61 46.2463 611.417ZM89.3831 122.601C92.4833 118.652 95.7479 114.807 99.1323 111.109C98.7976 110.57 98.4563 110.033 98.1242 109.492C95.0322 113.756 92.1084 118.141 89.3831 122.601ZM849.235 583.896C849.023 583.496 848.811 583.104 848.594 582.756C848.862 582.792 849.067 583.231 849.235 583.896ZM417.41 41.186C411.716 40.7614 403.51 41.0402 397.264 40.9509C397.755 42.4744 413.63 42.0533 419.205 42.9767C420.101 42.7034 419.817 41.3647 417.41 41.186ZM514.738 843.447C513.309 844.207 511.882 844.964 510.474 845.724C507.024 845.642 503.567 845.555 500.096 845.473C499.994 846.095 499.894 846.723 499.792 847.345C515.079 846.537 511.554 848.331 519.122 850.1C517.653 847.884 516.208 845.667 514.738 843.447ZM224.177 43.2123C213.098 44.9379 209.415 46.4429 215.824 47.3639C219.66 46.3959 223.519 45.4995 227.342 44.6645C226.277 44.1778 225.243 43.691 224.177 43.2123ZM850.832 382.735C850.152 373.736 852.51 373.354 851.342 365C851.311 364.771 851.277 364.537 851.24 364.297C851.218 364.531 851.196 364.765 851.174 365C850.734 369.606 850.289 374.21 849.849 378.797C850.176 380.098 850.505 381.433 850.832 382.735ZM767.324 814.93C771.215 813.282 774.891 805.719 785.459 800.639C786.918 798.165 787.594 796.382 788.688 794.159C790.335 793.961 792.13 793.622 793.735 793.415C793.741 793.41 793.746 793.405 793.752 793.4C800.91 785.884 795.244 789.753 794.701 788.856C794.497 788.502 800.281 783.523 797.961 784.592C794.112 786.565 783.603 797.562 782.215 796.031C786.695 793.08 793.716 785.398 790.61 786.623C787.294 787.958 781.781 796.308 776.172 799.268C785.058 796.033 770.098 806.976 766.914 806.072C759.154 813.695 767.869 808.932 776.513 801.899C772.326 807.556 779.558 800.584 781.778 800.634C777.199 806.218 756.545 819.318 767.324 814.93ZM266.948 847.243C274.351 847.421 285.87 848.747 290.915 847.285C293.841 846.441 282.433 845.518 290.331 844.259C283.191 844.257 281.502 844.753 282.706 846.026C281.066 846.136 279.453 846.239 277.774 846.338C277.017 846.074 276.244 845.813 275.495 845.548C274.621 846.033 273.745 846.512 272.898 846.995C271.2 846.84 269.374 846.676 267.652 846.507C267.438 846.756 267.082 846.966 266.948 847.243ZM811.88 123.94C813.106 125.593 814.297 127.25 815.476 128.938C815.597 128.58 815.703 128.178 815.81 127.787C815.905 127.493 816 127.199 816.094 126.904C816.119 128.386 820.283 137.348 823.119 140.461C824.563 142.04 823.669 137.015 828.295 144.653C825.105 139.024 821.782 134.029 818.165 128.911C818.891 129.1 819.608 129.273 820.334 129.471C820.333 129.467 820.331 129.464 820.33 129.46C819.265 127.651 818.161 125.832 817.038 124.053C815.309 123.99 813.597 123.96 811.88 123.94ZM60.5545 723.695C64.1372 730.034 65.7031 731.886 65.7368 728.205C65.7345 728.198 65.7322 728.191 65.7299 728.184C64.0331 726.066 62.3792 723.862 60.7869 721.623C60.7031 722.307 60.6219 722.99 60.5545 723.695ZM854.615 523.931C854.075 522.584 853.615 521.626 853.224 521C852.367 519.648 851.848 519.876 851.581 521C850.622 525.118 852.888 540.623 854.336 536.123C854.43 535.811 853.956 525.344 854.615 523.931ZM537.937 845.417C534.335 845.462 530.714 845.501 527 845.544C526.571 845.549 526.143 845.554 525.714 845.559C526.139 845.891 526.57 846.223 527 846.555C527.528 846.956 528.055 847.357 528.574 847.758C531.736 846.979 534.839 846.197 537.937 845.417ZM175.52 50.4994C170.79 50.2396 159.62 54.0814 155.422 58.3187C158.166 57.1769 160.935 56.1259 163.722 55.1621C160.421 56.7185 157.201 58.3956 154.039 60.1927C152.397 61.1269 150.767 62.0821 149.136 63.0639C149.641 64.3231 151.518 63.3624 154.789 61.6356C157.106 60.4149 160.145 58.8382 163.883 57.5013C165.308 56.917 175.01 56.1796 177.431 53.2252C177.905 52.5546 168.312 55.6221 174.493 52.0872C171.56 52.9934 169.057 53.9588 166.334 55.007C165.932 54.5836 165.53 54.16 165.104 53.7474C168.561 52.5328 172.012 51.4652 175.52 50.4994ZM309.883 847.983C319.966 848.198 321.316 847.279 323.369 845.68C318.65 845.838 314.032 845.986 309.255 846.122C309.474 846.741 309.663 847.36 309.883 847.983ZM97.9528 101.293C93.8682 105.316 96.5119 104.407 95.1633 106.274C90.162 113.37 85.7739 117.405 81.2958 124.707C81.4149 124.099 81.5238 123.538 81.6425 122.95C81.6382 122.956 81.6338 122.962 81.6295 122.968C58.9207 156.584 72.0543 139.485 85.7035 119.77C86.4327 119.614 87.1482 119.481 87.8733 119.332C93.6777 110.301 99.9756 102.548 97.9528 101.293ZM851.919 655.813C852.256 655.399 853.889 659.38 853.562 652.104C851.165 646.17 851.875 655.604 850.553 657.906C850.458 655.918 850.359 653.903 850.236 651.968C848.496 663.528 848.871 665.32 851.385 661.232C851.558 660.957 851.582 656.26 851.919 655.813ZM856.069 579.242C851.914 577.643 853.639 592.289 854.932 591.805C855.011 589.781 854.323 588.145 854.659 586.045C854.995 583.893 855.978 583.358 856.069 579.242ZM606.638 848.772C607.08 848.784 611.382 850.454 610.941 849.087C605.587 845.956 594.835 848.194 596.73 849.3C600.311 849.196 602.622 848.674 606.638 848.776C606.638 848.775 606.638 848.773 606.638 848.772ZM242.5 37.8254C242.268 37.6992 231.326 37.8915 230.006 38.7132C228.906 39.5623 228.41 40.4077 227.624 41.257C233.522 39.8863 245.667 39.5522 242.478 37.827C242.486 37.8265 242.493 37.8259 242.5 37.8254Z" fill="white" fill-opacity="0.5"/>
</svg>
